<?xml version="1.0" standalone="no"?>
<!DOCTYPE svg PUBLIC "-//W3C//DTD SVG 20010904//EN"
 "http://www.w3.org/TR/2001/REC-SVG-20010904/DTD/svg10.dtd">
<svg version="1.0" xmlns="http://www.w3.org/2000/svg"
 width="2400.000000pt" height="2400.000000pt" viewBox="0 0 2400.000000 2400.000000"
 preserveAspectRatio="xMidYMid meet">
<metadata>
Created by potrace 1.14, written by Peter Selinger 2001-2017
</metadata>
<g transform="translate(0.000000,2400.000000) scale(0.100000,-0.100000)"
fill="#000000" stroke="none">
<path d="M6730 23983 c-2258 -23 -3490 -90 -3490 -188 0 -8 16 -23 37 -33 l36
-17 -9 -820 c-10 -937 -9 -1200 7 -1303 19 -126 44 -164 127 -193 l47 -16 3
-261 c1 -144 -1 -262 -6 -262 -4 0 -45 11 -90 24 l-82 24 0 -422 c-1 -231 -5
-630 -10 -886 -10 -507 -3 -683 28 -753 24 -52 44 -70 107 -95 l50 -20 3 -331
c2 -280 0 -331 -12 -331 -8 0 -58 15 -111 34 -63 22 -98 30 -100 22 -4 -14
-19 -1634 -17 -1791 3 -152 18 -246 45 -287 16 -23 45 -42 102 -67 44 -20 83
-40 87 -46 11 -15 10 -425 -1 -425 -5 0 -56 20 -113 44 l-103 44 -2 -271 c-1
-150 -7 -555 -13 -902 -15 -892 -13 -905 135 -982 44 -22 86 -46 93 -52 9 -9
12 -78 12 -280 0 -147 -2 -270 -5 -273 -3 -3 -44 15 -91 39 -47 25 -87 43 -89
41 -3 -2 -9 -834 -16 -1848 -12 -1973 -7 -4889 10 -5440 16 -518 36 -852 57
-951 l5 -26 -88 -8 c-48 -3 -104 -12 -123 -18 -55 -19 -51 -42 21 -107 289
-262 4451 -3926 4534 -3991 451 -355 712 -462 1275 -526 135 -16 250 -18 880
-18 882 1 1316 17 2495 96 1653 109 4395 340 7570 638 362 34 555 48 610 45
69 -5 85 -3 112 15 61 39 65 127 12 252 l-21 49 -28 -20 c-48 -34 -72 -38
-306 -50 -504 -24 -2409 -147 -5384 -345 -1702 -114 -2378 -158 -2622 -171
l-128 -7 0 677 c0 372 3 676 8 677 4 1 45 2 92 4 47 1 137 5 200 9 169 9 363
18 920 41 2772 118 5285 325 7215 595 77 11 140 20 141 20 1 0 0 28 -2 62 -2
35 -7 121 -10 192 l-6 128 -42 -7 c-2094 -340 -4415 -553 -7636 -700 -63 -3
-151 -7 -195 -10 -44 -3 -147 -7 -230 -10 -82 -3 -212 -8 -289 -10 -76 -3
-143 -8 -147 -11 -12 -7 -12 -112 7 3916 9 1900 14 3593 12 3763 l-4 307 41 0
c64 0 1613 70 1683 76 l62 6 0 259 0 259 -67 -1 c-38 0 -437 -19 -888 -43
-451 -23 -820 -42 -820 -42 0 1 3 548 6 1216 4 811 3 1236 -4 1277 -6 35 -9
65 -6 67 2 2 353 18 779 35 426 17 826 34 888 38 l112 6 0 283 0 284 -60 0
c-70 0 -1519 -57 -1629 -64 l-74 -5 7 1202 c4 762 3 1217 -3 1242 -6 22 -9 40
-8 41 1 0 337 11 747 23 410 12 807 24 883 28 l137 6 0 243 0 244 -64 0 c-78
0 -1372 -37 -1553 -44 l-131 -6 1 1254 2 1255 70 5 c39 3 408 15 820 26 413
12 774 23 803 26 l52 5 0 251 0 250 -157 -6 c-87 -4 -419 -13 -738 -21 -319
-8 -639 -17 -712 -20 l-131 -6 4 273 c2 150 6 794 8 1431 l4 1157 -446 0
c-808 0 -1587 26 -2397 80 -404 27 -465 32 -465 39 0 3 16 195 35 426 47 556
55 682 48 733 l-6 42 -1046 -2 c-575 -2 -1143 -4 -1261 -5z m1167 -1089 c-3
-3 -12 -4 -19 -1 -8 3 -5 6 6 6 11 1 17 -2 13 -5z m780 -3296 c-1 -68 -3 -13
-3 122 0 135 2 190 3 123 2 -68 2 -178 0 -245z m0 -3100 c-1 -84 -3 -16 -3
152 0 168 2 236 3 153 2 -84 2 -222 0 -305z"/>
<path d="M18480 19984 c-1020 -29 -1899 -53 -1952 -53 l-98 -1 0 -250 c0 -231
1 -250 18 -250 9 0 921 27 2026 60 l2009 61 55 26 c65 31 126 90 144 141 7 21
13 75 12 124 -1 102 -19 141 -80 175 -50 29 106 31 -2134 -33z"/>
<path d="M18570 16979 c-1053 -31 -1964 -59 -2025 -61 l-110 -3 -3 -247 -2
-246 92 4 c51 3 930 29 1953 59 l1860 55 82 26 c108 34 179 84 212 149 22 43
26 62 26 140 -1 135 -36 186 -125 184 -25 -1 -907 -28 -1960 -60z"/>
<path d="M18275 14062 l-1840 -77 -3 -288 -2 -289 117 7 c65 3 935 40 1933 80
l1816 74 89 26 c161 46 240 111 265 217 15 60 7 165 -14 207 -39 74 -157 111
-376 116 -82 2 -946 -30 -1985 -73z"/>
<path d="M18135 10979 c-924 -48 -1686 -88 -1692 -88 -10 -1 -13 -62 -13 -271
l0 -270 28 0 c54 0 3559 159 3637 165 128 10 262 34 342 60 163 55 223 125
223 260 0 149 -68 200 -302 225 -193 20 -547 7 -2223 -81z"/>
</g>
</svg>
